<?xml version="1.0" encoding="utf-8"?>
<!-- Generator: Adobe Illustrator 26.0.2, SVG Export Plug-In . SVG Version: 6.00 Build 0)  -->
<svg version="1.1" id="Capa_1" xmlns="http://www.w3.org/2000/svg" xmlns:xlink="http://www.w3.org/1999/xlink" x="0px" y="0px"
	 viewBox="0 0 48.9 53.8" style="enable-background:new 0 0 48.9 53.8;" xml:space="preserve">
<style type="text/css">
	.st0{fill:#1E1919;}
	.st1{fill:#EDEEF0;}
	.st2{fill:#FFFFFF;}
	.st3{fill:#D7D9DD;}
</style>
<g id="Capa_2_00000029725564426695091980000010587063199477894280_">
	<g id="Capa_1-2">
		<path class="st0" d="M48.8,11.5l-2.8-4.1l0,0l0,0l0,0c0,0-0.1,0-0.1-0.1h-0.1L34,7.5l-9.8-7.4l0,0c0,0-0.1,0-0.1,0H24L0.8,6.1
			c-0.1,0-0.2,0.1-0.2,0.2c0,0.1,0,0.2,0.1,0.3l3.4,2.1L0.2,9.6C0.1,9.6,0,9.7,0,9.8c0,0.1,0,0.2,0.1,0.3L21,22.3l0.7,0.5L11.1,35.9
			l0,0l0,0c0,0,0,0.1-0.1,0.1l0,0l0,0c0,0,0,0.1,0,0.1l10,17.6c0,0.1,0.1,0.1,0.2,0.1l0,0c0.1,0,0.2-0.1,0.2-0.2l8.2-26l10.6-4.7
			h0.1l0,0l0,0l0,0l0,0L44.8,11l3.7,1c0.1,0,0.2,0,0.3-0.1C48.9,11.8,48.9,11.7,48.8,11.5 M34.3,8l11.1-0.2l-5.3,14L34.3,8z
			 M29,27.9l-7.8,25l-9.5-16.7L29,27.9z M12.3,35.2l10-12.1l6.6,4.2L12.3,35.2z M21.5,22l2.4-16.3l15.7,16.8l-10.2,4.6L21.5,22z
			 M1.1,10l22.3-4.6L21,21.6L1.1,10z M23.8,0.6l-0.3,4.2L4.9,8.6L1.6,6.5L23.8,0.6z M31.4,12.8l2.5-4.4l5.4,12.9L31.4,12.8z
			 M33.5,7.8l-2.6,4.5L24,5l0.3-4.1L33.5,7.8z M45.1,10.3l0.8-2.1l2,3L45.1,10.3z"/>
		<polygon class="st1" points="34.3,8 45.4,7.9 40.1,21.8 		"/>
		<polygon class="st1" points="29,27.9 21.2,52.9 11.7,36.2 		"/>
		<polygon class="st2" points="12.3,35.2 22.2,23.1 28.9,27.3 		"/>
		<polygon class="st1" points="21.5,22 23.9,5.7 39.7,22.5 29.5,27.1 		"/>
		<polygon class="st2" points="1.1,10 23.4,5.4 21,21.6 		"/>
		<polygon class="st1" points="23.8,0.6 23.5,4.8 4.9,8.6 1.6,6.5 		"/>
		<polygon class="st2" points="31.4,12.8 33.9,8.4 39.3,21.2 		"/>
		<polygon class="st3" points="33.5,7.8 30.9,12.4 24,4.9 24.3,0.8 		"/>
		<polygon class="st2" points="45.1,10.3 45.9,8.2 47.9,11.2 		"/>
	</g>
</g>
</svg>
