<svg xmlns="http://www.w3.org/2000/svg" viewBox="0 0 149.76 53.84"><defs><style>.cls-1{fill:#1e1919;}.cls-2{fill:#edeef0;}.cls-3{fill:#fff;}.cls-4{fill:#d7d9dd;}</style></defs><g id="Capa_2" data-name="Capa 2"><g id="Capa_1-2" data-name="Capa 1"><path class="cls-1" d="M98.47,31.05A4.56,4.56,0,0,0,100,29.32c.14-.14.07-.29-.22-.43s-.32-.15-.43.1a3.66,3.66,0,0,1-.62.84c-.24.24-.46.47-.68.68a.18.18,0,0,0-.19.16.32.32,0,0,0,.08.28c.11.21.29.25.54.1"/><path class="cls-1" d="M142.18,31.22c.11.18.2.26.27.25a.87.87,0,0,0,.27-.14,8.16,8.16,0,0,1,.74-.65,1.55,1.55,0,0,1,1-.33,1,1,0,0,0,.17-.35.29.29,0,0,0-.06-.3c0-.07,0-.12-.14-.16a.33.33,0,0,0-.29.06,1.78,1.78,0,0,0-1,.35,3.19,3.19,0,0,0-.84.84.47.47,0,0,0-.16.33c0,.07,0,.1.05.1"/><path class="cls-1" d="M149.73,37c-.08-.24-.33-.3-.73-.19a24.24,24.24,0,0,1-5.48.49,7.65,7.65,0,0,1-3.22-.67c-.69-.38-1-.84-.84-1.4s.67-1.15,1.64-1.76v-.11l.11-.11a.3.3,0,0,0,.16-.41.37.37,0,0,0-.37-.24h-.22l-1.06.6-.89.51c-.29.17-.58.33-.89.49l-1.05.57a.24.24,0,0,0-.14.19v0c-.47.23-.93.45-1.38.63a1.8,1.8,0,0,1-1.24.19c-.25-.11-.3-.41-.14-.89a2.35,2.35,0,0,1,.95-1.22.37.37,0,0,0,.08-.54c-.13-.22-.37-.18-.73.11l-1.44,1c-.56.39-1.13.76-1.73,1.11a16,16,0,0,1-1.7.86,2.21,2.21,0,0,1-1.3.25c-.21-.14-.24-.39-.08-.73a4,4,0,0,1,.81-1.09c.16-.15.34-.3.52-.45a8.07,8.07,0,0,0,1.39-.82,2.29,2.29,0,0,1,.82-.16,1.52,1.52,0,0,1,.9.19c.16.12.33.24.51.35a.29.29,0,0,0,.35,0c.13-.09.15-.19.08-.3a1.51,1.51,0,0,0-.68-.59,2.45,2.45,0,0,0-1.16-.27,3.35,3.35,0,0,0-.76.09.61.61,0,0,0-.41.12,4.12,4.12,0,0,0-.77.36,6.67,6.67,0,0,0-.68.45l-.08,0a26.23,26.23,0,0,1-2.49,1c-.94.33-1.91.65-2.92.95a17.18,17.18,0,0,1-2.78.63,7.94,7.94,0,0,1-2.11,0c-.56-.09-.86-.35-.9-.79a3,3,0,0,1,.33-1.16,4.52,4.52,0,0,1,.7-1.17,26.32,26.32,0,0,0,3.94-2.41c1.27-.92,2.51-1.88,3.73-2.9.83,0,1.64,0,2.44.06s1.6.09,2.43.16a1.46,1.46,0,0,0,.38,0c.29,0,.45,0,.49-.16a.41.41,0,0,0-.22-.44l-.32-.1-4.33-.32c.86-.76,1.57-1.43,2.11-2a3.16,3.16,0,0,0,.91-1.46.61.61,0,0,0-.13-.35.47.47,0,0,0-.41-.19,3.32,3.32,0,0,0-1.35.46,19.72,19.72,0,0,0-1.81,1.11c-.63.44-1.24.88-1.84,1.33s-1,.82-1.38,1.11c-1.4,0-2.75,0-4,.09s-2.4.14-3.33.24a.54.54,0,0,0-.27.06.38.38,0,0,0-.27.38c0,.21.12.3.37.27l.49-.06c.87-.1,1.82-.17,2.87-.19s2.14,0,3.3,0c-1,1-1.92,1.9-2.62,2.68a23.55,23.55,0,0,0-1.7,2.08l-.79.46a1,1,0,0,0-.24.08,22.73,22.73,0,0,1-3.51,1.93,16.61,16.61,0,0,1-3.2,1.11c-.39.08-.65.06-.78,0a.57.57,0,0,1-.14-.54,4.68,4.68,0,0,1,.27-.92c.15-.36.29-.76.43-1.19a1.13,1.13,0,0,0,.17-.6.52.52,0,0,0-.27-.48,1.89,1.89,0,0,0-2,.11c-.79.39-1.73.9-2.81,1.51a3.27,3.27,0,0,0,.21-.83,2.53,2.53,0,0,0-.11-1c-.07-.21-.18-.31-.32-.29a.44.44,0,0,0-.33.3v.1a.52.52,0,0,1-.24.36c-.16.12-.35.26-.58.4s-.48.3-.76.46-.53.3-.74.41a.54.54,0,0,0-.2.14c-.48.23-1,.46-1.42.67a17.58,17.58,0,0,1-2.38.92c-.22.08-.51.16-.87.25a4,4,0,0,1-1,.14.73.73,0,0,1-.6-.22c-.1-.14,0-.45.28-.92.18-.29.35-.56.54-.81a3.4,3.4,0,0,1,.86-.81c.18-.11.21-.28.08-.49a.34.34,0,0,0-.51-.16h0a.58.58,0,0,0-.53.11,26.8,26.8,0,0,1-2.57,1.46c-1.14.58-2.41,1.17-3.81,1.76S87.51,37.16,86,37.66a29.59,29.59,0,0,1-4.19,1.12,13,13,0,0,1-3.41.22,2.07,2.07,0,0,1-1.89-1.11,1.62,1.62,0,0,1,.11-1.51,10.72,10.72,0,0,1,1.27-2.11,30.52,30.52,0,0,1,2-2.41c.75-.85,1.52-1.67,2.29-2.47s1.51-1.51,2.19-2.16,1.24-1.18,1.68-1.57q1.73-1.64,3.27-3L92,20.27c.79-.71,1.43-1.29,1.92-1.76a4.06,4.06,0,0,0,.83-1c0-.07,0-.11.06-.11h0v-.21a.77.77,0,0,0-.68-.87,4.37,4.37,0,0,0-1.73.19,17.93,17.93,0,0,0-2.38.9c-.88.4-1.74.79-2.57,1.19-2,1-4.34,2.22-7,3.74s-5.35,3.13-8.16,4.82c-2.17,1.27-4.28,2.54-6.35,3.82s-4.07,2.51-6,3.66l-1.19.76.43-.32L62,32.77c.9-.8,1.79-1.61,2.65-2.44,1.66-1.66,3.24-3.36,4.76-5.12a35.14,35.14,0,0,0,3.72-5.09A14.48,14.48,0,0,0,75,15.53a4.09,4.09,0,0,0-.84-3.6l0-.11H74a4.08,4.08,0,0,0-2.51-1.1,11,11,0,0,0-3.52.19,22.83,22.83,0,0,0-4,1.22c-1.4.56-2.77,1.18-4.11,1.87a39.22,39.22,0,0,0-4,2.41,26.8,26.8,0,0,0-3.35,2.71,12.94,12.94,0,0,0-2.24,2.76,4.36,4.36,0,0,0-.7,2.63,1.61,1.61,0,0,0,1,1.45,4.13,4.13,0,0,0,2.14.25,12.89,12.89,0,0,0,2.76-.66,18.93,18.93,0,0,0,2.89-1.27c.9-.47,1.82-1,2.76-1.57a18.35,18.35,0,0,0,2.48-1.84,9.76,9.76,0,0,0,1.7-1.93,2.24,2.24,0,0,0,.41-1.81.35.35,0,0,0-.11-.22.14.14,0,0,0-.22,0c-.18,0-.28,0-.29.11a.89.89,0,0,0,0,.22,2.06,2.06,0,0,1-.4,1.41,8.18,8.18,0,0,1-1.49,1.67,20,20,0,0,1-2.3,1.74A22.08,22.08,0,0,1,58,23.63a29.38,29.38,0,0,1-2.92,1.25,11.83,11.83,0,0,1-2.4.62A3.4,3.4,0,0,1,51,25.39a1,1,0,0,1-.68-.89,3.94,3.94,0,0,1,.62-2.3,11.77,11.77,0,0,1,2.11-2.57A30.51,30.51,0,0,1,56.27,17a36.21,36.21,0,0,1,7.78-4.15,32.34,32.34,0,0,1,3.65-1.13,12.47,12.47,0,0,1,3.11-.39,4.77,4.77,0,0,1,2.33.57l.32.43L74,13a4.29,4.29,0,0,1,.12,3.19,15.89,15.89,0,0,1-2,4.11A37.14,37.14,0,0,1,68.66,25q-2.1,2.43-4.59,4.82a67.71,67.71,0,0,1-5.22,4.74q-2.67,2.19-4.94,3.82l-.11.11-.43.32c-1.48.87-2.66,1.55-3.54,2a18.57,18.57,0,0,1-1.76.9c-.18,0-.29.07-.32.21a.28.28,0,0,0,.1.33c.08,0,.11,0,.11,0s0,.06.11.06a1.15,1.15,0,0,0,.7,0A4.44,4.44,0,0,0,49.85,42c.4-.2.82-.44,1.28-.73s.91-.6,1.37-.92l1.73-1.19.87-.55q3.57-2.1,8.13-5t9.49-5.77q4.22-2.53,8.19-4.77T88,19.27c1-.54,2-1,2.76-1.3s1.46-.58,2-.76l.75-.16a.92.92,0,0,1,.54.05l.11.11-.11.11a19,19,0,0,1-2.59,2.38q-1.25,1.08-2.73,2.46t-3.21,3q-2.33,2.22-4.25,4.17C80,30.58,78.88,31.78,78,32.86a15.64,15.64,0,0,0-1.94,2.89,2.92,2.92,0,0,0-.35,2.14,2.41,2.41,0,0,0,2,1.68,10.89,10.89,0,0,0,3.59,0,25.79,25.79,0,0,0,4.52-1.06q2.43-.8,4.68-1.74c1.36-.57,2.6-1.15,3.74-1.72a.27.27,0,0,0,.28,0,2.36,2.36,0,0,1,.55-.24,3.24,3.24,0,0,0,.75-.41,4.34,4.34,0,0,0-.54,1,1.06,1.06,0,0,0,.11,1c.26.36.78.47,1.57.35a14.86,14.86,0,0,0,2.54-.68A24,24,0,0,0,102,35c.81-.42,1.4-.74,1.76-1l0,0a9.84,9.84,0,0,0,1-.64,3.68,3.68,0,0,1-.36.9,3.31,3.31,0,0,1-.83,1,3.57,3.57,0,0,0-.7.75c-.15.29-.15.47,0,.55a.57.57,0,0,0,.48,0,4.13,4.13,0,0,0,.46-.41c.2-.2.39-.41.57-.62s.7-.51,1.24-.87,1.09-.7,1.65-1a8.49,8.49,0,0,1,1.49-.68c.43-.14.68-.11.76.11a7.64,7.64,0,0,1-.44,1.16,5,5,0,0,0-.4,1.38,1.53,1.53,0,0,0,.22,1.08c.19.29.66.38,1.38.27A15.55,15.55,0,0,0,114,35.82a21.61,21.61,0,0,0,3-1.66l.47-.21-.11.11a2.76,2.76,0,0,0-.35.81,3.76,3.76,0,0,0-.08.71,1.28,1.28,0,0,0,.35.94,1.71,1.71,0,0,0,1,.46,6.28,6.28,0,0,0,2.89,0,28.4,28.4,0,0,0,3.82-.95c1-.31,1.87-.64,2.73-1a3,3,0,0,0-.41,1,1,1,0,0,0,.49,1.16,1.3,1.3,0,0,0,1,0,9.86,9.86,0,0,0,1.57-.57,12.78,12.78,0,0,0,1.67-.89c.55-.34,1-.66,1.41-1a1.38,1.38,0,0,0-.14,1,1,1,0,0,0,.74.7,2.65,2.65,0,0,0,1.54-.16,14,14,0,0,0,1.89-.82c.5-.25,1-.52,1.42-.79a1.7,1.7,0,0,0,.2,1.77,4.11,4.11,0,0,0,2.14,1.19,13.35,13.35,0,0,0,3.55.32,24.6,24.6,0,0,0,4.4-.55c.51-.07.71-.22.62-.46M127.11,25.15a20,20,0,0,1,2-1.06l.33-.1a12.64,12.64,0,0,1-1.33,1.46c-.59.58-1.19,1.14-1.81,1.68h-1.94A26.89,26.89,0,0,1,127.11,25.15Zm-4.94,4c.61-.58,1.08-1,1.4-1.3h1.84c-.72.54-1.57,1.14-2.54,1.81L119.52,32C120.67,30.7,121.55,29.77,122.17,29.19Z"/><path class="cls-1" d="M48.84,11.53,46.08,7.47l0,0h0a.12.12,0,0,0,0,0,.34.34,0,0,0-.12-.06h-.06L34,7.47,24.24.05l0,0a.19.19,0,0,0-.08,0H24L.81,6.12a.29.29,0,0,0-.21.23.29.29,0,0,0,.13.28L4.09,8.77.23,9.55A.3.3,0,0,0,0,9.78a.28.28,0,0,0,.14.29L21,22.34l.73.47L11.05,35.87l0,0h0A.17.17,0,0,1,11,36,.18.18,0,0,0,11,36v0a.28.28,0,0,0,0,.13L21,53.7a.26.26,0,0,0,.24.14h0a.28.28,0,0,0,.24-.2l8.16-26,10.57-4.74.06,0,0,0,0,0s0,0,0,0h0l4.51-11.91L48.52,12a.27.27,0,0,0,.31-.1.29.29,0,0,0,0-.33M34.34,8l11.07-.15-5.28,14ZM29,27.91l-7.81,25L11.67,36.17Zm-16.7,7.34,10-12.13,6.63,4.22ZM21.49,22,23.92,5.67,39.67,22.49,29.48,27.06ZM1.06,10,23.38,5.41,21,21.65ZM23.75.65l-.29,4.17L4.89,8.6,1.58,6.5Zm7.6,12.13,2.53-4.39,5.39,12.86Zm2.2-4.95-2.61,4.52L24,5l.3-4.13Zm11.56,2.45L45.9,8.2l2,3Z"/><polygon class="cls-2" points="34.34 8.03 45.41 7.88 40.13 21.82 34.34 8.03"/><polygon class="cls-2" points="29 27.91 21.18 52.86 11.67 36.17 29 27.91"/><polygon class="cls-3" points="12.29 35.25 22.25 23.12 28.88 27.34 12.29 35.25"/><polygon class="cls-2" points="21.5 21.96 23.92 5.67 39.67 22.49 29.48 27.06 21.5 21.96"/><polygon class="cls-3" points="1.06 9.96 23.38 5.41 20.97 21.65 1.06 9.96"/><polygon class="cls-2" points="23.75 0.65 23.46 4.82 4.89 8.6 1.58 6.5 23.75 0.65"/><polygon class="cls-3" points="31.35 12.78 33.88 8.39 39.27 21.25 31.35 12.78"/><polygon class="cls-4" points="33.55 7.83 30.94 12.35 24.02 4.95 24.31 0.82 33.55 7.83"/><polygon class="cls-3" points="45.11 10.28 45.9 8.2 47.91 11.17 45.11 10.28"/></g></g></svg>